<svg width="48" height="48" viewBox="0 0 48 48" fill="none" xmlns="http://www.w3.org/2000/svg">
<rect x="48" y="16" width="4" height="4" transform="rotate(90 48 16)" fill="white"/>
<rect x="32" width="4" height="4" transform="rotate(90 32 0)" fill="white"/>
<rect x="20" y="44" width="4" height="4" transform="rotate(90 20 44)" fill="white"/>
<rect x="4" y="28" width="4" height="4" transform="rotate(90 4 28)" fill="white"/>
<rect x="28" y="20" width="4" height="4" transform="rotate(90 28 20)" fill="white"/>
<rect x="32" y="16" width="4" height="4" transform="rotate(90 32 16)" fill="white"/>
<rect width="4" height="16" transform="translate(48) rotate(90)" fill="white"/>
<rect x="48" width="4" height="4" transform="rotate(90 48 0)" fill="white"/>
<rect x="44" width="4" height="4" transform="rotate(90 44 0)" fill="black"/>
<rect x="40" width="4" height="4" transform="rotate(90 40 0)" fill="white"/>
<rect x="36" width="4" height="4" transform="rotate(90 36 0)" fill="white"/>
<rect x="48" y="4" width="4" height="4" transform="rotate(90 48 4)" fill="white"/>
<rect x="44" y="4" width="4" height="4" transform="rotate(90 44 4)" fill="white"/>
<rect x="40" y="4" width="4" height="4" transform="rotate(90 40 4)" fill="white"/>
<rect x="36" y="4" width="4" height="4" transform="rotate(90 36 4)" fill="white"/>
<rect x="44" width="4" height="4" transform="rotate(90 44 0)" fill="white"/>
<rect x="48" y="8" width="4" height="4" transform="rotate(90 48 8)" fill="white"/>
<rect x="44" y="8" width="4" height="4" transform="rotate(90 44 8)" fill="white"/>
<rect x="40" y="8" width="4" height="4" transform="rotate(90 40 8)" fill="white"/>
<rect x="48" y="12" width="4" height="4" transform="rotate(90 48 12)" fill="white"/>
<rect x="44" y="12" width="4" height="4" transform="rotate(90 44 12)" fill="white"/>
<rect x="36" y="12" width="4" height="4" transform="rotate(90 36 12)" fill="white"/>
<rect x="28" y="20" width="4" height="4" transform="rotate(90 28 20)" fill="white"/>
<rect x="24" y="24" width="4" height="4" transform="rotate(90 24 24)" fill="white"/>
<rect x="20" y="28" width="4" height="4" transform="rotate(90 20 28)" fill="white"/>
<rect x="16" y="32" width="4" height="4" transform="rotate(90 16 32)" fill="white"/>
<rect x="44" y="8" width="4" height="4" transform="rotate(90 44 8)" fill="white"/>
<rect y="48" width="4" height="4" transform="rotate(-90 0 48)" fill="white"/>
<rect x="8" y="48" width="4" height="4" transform="rotate(-90 8 48)" fill="white"/>
<rect x="12" y="48" width="4" height="4" transform="rotate(-90 12 48)" fill="white"/>
<rect y="44" width="4" height="4" transform="rotate(-90 0 44)" fill="white"/>
<rect x="4" y="44" width="4" height="4" transform="rotate(-90 4 44)" fill="white"/>
<rect x="8" y="44" width="4" height="4" transform="rotate(-90 8 44)" fill="white"/>
<rect x="12" y="44" width="4" height="4" transform="rotate(-90 12 44)" fill="white"/>
<rect x="4" y="48" width="4" height="4" transform="rotate(-90 4 48)" fill="white"/>
<rect y="40" width="4" height="4" transform="rotate(-90 0 40)" fill="white"/>
<rect x="8" y="40" width="4" height="4" transform="rotate(-90 8 40)" fill="white"/>
<rect y="36" width="4" height="4" transform="rotate(-90 0 36)" fill="white"/>
<rect x="4" y="36" width="4" height="4" transform="rotate(-90 4 36)" fill="white"/>
<rect x="4" y="40" width="4" height="4" transform="rotate(-90 4 40)" fill="white"/>
</svg>
